<?xml version="1.0" encoding="utf-8"?>
<!-- Svg Vector Icons : http://www.onlinewebfonts.com/icon -->
<!DOCTYPE svg PUBLIC "-//W3C//DTD SVG 1.1//EN" "http://www.w3.org/Graphics/SVG/1.1/DTD/svg11.dtd">
<svg version="1.1" xmlns="http://www.w3.org/2000/svg" xmlns:xlink="http://www.w3.org/1999/xlink" x="0px" y="0px" viewBox="0 0 1000 1000" enable-background="new 0 0 1000 1000" xml:space="preserve">
<metadata> Svg Vector Icons : http://www.onlinewebfonts.com/icon </metadata>
<g><g transform="translate(0.000000,511.000000) scale(0.100000,-0.100000)"><path d="M3750.4,4998.2c-800-76.9-1451.9-288.5-1992.3-650C944.7,3804,452.4,2931,327.4,1811.8c-30.8-275-25-740.4,9.6-925C400.5,558,569.7,177.2,879.3-332.4c494.2-817.3,640.4-1088.4,775-1434.6c344.2-890.4,346.1-1826.9,1.9-2821.1c-32.7-92.3-59.6-176.9-59.6-186.5c0-7.7,1101.9-15.4,2448-15.4h2446.1l-5.8,84.6c-9.6,117.3,28.8,348.1,75,451.9c55.8,128.8,144.2,209.6,257.7,242.3c126.9,34.6,219.2,44.2,653.8,67.3c403.8,21.1,655.8,55.8,817.3,111.5c351.9,121.2,523.1,298.1,576.9,601.9c25,140.4,17.3,217.3-48.1,426.9c-26.9,86.5-42.3,171.2-36.5,196.1c5.8,25,57.7,88.5,115.4,142.3c121.2,113.5,128.8,157.7,55.8,288.5c-67.3,115.4-61.6,151.9,38.5,244.2c105.8,96.2,107.7,128.8,28.8,363.4c-67.3,198.1-75,334.6-23.1,382.7c21.2,17.3,94.2,38.5,173.1,48.1c298.1,38.5,523.1,205.8,523.1,392.3c0,76.9-84.6,219.2-498.1,821.1c-325,476.9-386.5,571.2-446.1,696.2l-44.2,90.4l65.4,101.9c130.7,205.8,134.6,219.2,134.6,444.2c0,1163.4-523.1,2161.5-1459.6,2784.6c-623.1,413.5-1365.4,663.4-2309.6,776.9C4829.2,5005.9,4013.9,5023.2,3750.4,4998.2z M4142.7,3959.8c115.4-25,180.8-103.8,203.8-240.4c9.6-63.5,19.2-148.1,19.2-188.4c0-157.7,142.3-323.1,309.6-357.7c157.7-34.6,271.1,3.9,419.2,142.3c115.4,105.8,153.8,125,257.7,125c136.5,0,298.1-138.5,342.3-292.3c26.9-94.2-7.7-176.9-125-311.5c-126.9-144.2-146.1-190.4-146.1-334.6c0-201.9,134.6-355.8,338.5-388.5c61.5-11.5,148.1-19.2,192.3-19.2c98.1,0,198.1-63.5,242.3-153.8c46.2-92.3,44.2-255.8-3.8-355.8c-53.9-111.5-125-146.2-338.5-163.5c-159.6-11.5-190.4-19.2-263.5-71.2c-107.7-78.8-167.3-194.2-167.3-326.9s34.6-213.5,142.3-328.8c175-188.5,182.7-305.8,26.9-475C5425.4,36.8,5304.2,33,5104.2,202.2c-150,126.9-225,161.5-350,161.5c-123.1,0-246.2-65.4-319.2-167.3c-46.2-65.4-57.7-107.7-71.2-257.7c-21.2-215.4-53.8-286.5-151.9-342.3c-96.2-53.9-278.8-55.8-380.8-3.9c-98.1,50-136.5,132.7-155.8,344.2c-19.2,200-55.8,276.9-180.8,363.5c-86.5,59.6-242.3,80.8-346.1,46.1c-38.5-13.5-130.8-75-203.8-136.5c-211.5-176.9-328.8-175-498.1,9.6c-153.8,169.2-151.9,273.1,11.5,455.8c126.9,142.3,157.7,211.5,157.7,348.1c0,132.7-59.6,248.1-167.3,326.9c-73.1,51.9-103.8,59.6-263.4,71.2c-213.5,17.3-284.6,51.9-338.5,163.5c-48.1,100-50,263.5-3.9,355.8c53.9,107.7,130.8,146.1,321.2,161.5c228.8,17.3,338.5,76.9,415.4,226.9c44.2,84.6,48.1,269.2,9.6,344.2c-15.4,28.8-73.1,107.7-130.8,175c-113.5,134.6-146.1,223.1-111.5,313.4c59.6,153.8,211.5,278.8,340.4,278.8c103.8,0,142.3-19.2,257.7-125c148.1-138.5,261.5-176.9,419.2-142.3c167.3,34.6,309.6,200,309.6,357.7c0,163.5,36.5,300,94.2,357.7C3846.6,3969.4,3988.9,3996.3,4142.7,3959.8z"/><path d="M3779.3,2588.7c-417.3-138.5-669.2-534.6-605.8-950c57.7-367.3,348.1-659.6,717.3-721.1c453.8-75,903.8,255.8,975,721.1c55.8,361.5-140.4,726.9-476.9,894.2c-134.6,65.4-157.7,71.2-338.5,75C3927.3,2611.8,3827.3,2604.1,3779.3,2588.7z"/></g></g>
</svg>